<svg width="30" height="29" viewBox="0 0 30 29" fill="none" xmlns="http://www.w3.org/2000/svg">
<path d="M9.50813 0.455797C9.63593 0.242463 9.84324 0.0886359 10.0845 0.0281555C10.3257 -0.032325 10.581 0.00549529 10.7944 0.133296C11.0077 0.261098 11.1615 0.468411 11.222 0.70963C11.2825 0.950848 11.2447 1.20621 11.1169 1.41955L6.34312 9.37517H23.6569L18.8812 1.41955C18.7534 1.20621 18.7156 0.950848 18.7761 0.70963C18.8366 0.468411 18.9904 0.261098 19.2037 0.133296C19.4171 0.00549529 19.6724 -0.032325 19.9137 0.0281555C20.1549 0.0886359 20.3622 0.242463 20.49 0.455797L25.8431 9.37517H29.0625C29.3111 9.37517 29.5496 9.47394 29.7254 9.64976C29.9012 9.82557 30 10.064 30 10.3127V14.0627C30 14.3113 29.9012 14.5498 29.7254 14.7256C29.5496 14.9014 29.3111 15.0002 29.0625 15.0002H28.125V24.3752C28.125 25.3697 27.7299 26.3236 27.0266 27.0268C26.3234 27.7301 25.3696 28.1252 24.375 28.1252H5.625C4.63044 28.1252 3.67661 27.7301 2.97335 27.0268C2.27009 26.3236 1.875 25.3697 1.875 24.3752V15.0002H0.9375C0.68886 15.0002 0.450403 14.9014 0.274587 14.7256C0.0987721 14.5498 0 14.3113 0 14.0627V10.3127C0 10.064 0.0987721 9.82557 0.274587 9.64976C0.450403 9.47394 0.68886 9.37517 0.9375 9.37517H4.15688L9.50813 0.455797ZM6.5625 17.8127C6.5625 17.564 6.46373 17.3256 6.28791 17.1498C6.1121 16.9739 5.87364 16.8752 5.625 16.8752C5.37636 16.8752 5.1379 16.9739 4.96209 17.1498C4.78627 17.3256 4.6875 17.564 4.6875 17.8127V23.4377C4.6875 23.6863 4.78627 23.9248 4.96209 24.1006C5.1379 24.2764 5.37636 24.3752 5.625 24.3752C5.87364 24.3752 6.1121 24.2764 6.28791 24.1006C6.46373 23.9248 6.5625 23.6863 6.5625 23.4377V17.8127ZM11.25 17.8127C11.25 17.564 11.1512 17.3256 10.9754 17.1498C10.7996 16.9739 10.5611 16.8752 10.3125 16.8752C10.0639 16.8752 9.8254 16.9739 9.64959 17.1498C9.47377 17.3256 9.375 17.564 9.375 17.8127V23.4377C9.375 23.6863 9.47377 23.9248 9.64959 24.1006C9.8254 24.2764 10.0639 24.3752 10.3125 24.3752C10.5611 24.3752 10.7996 24.2764 10.9754 24.1006C11.1512 23.9248 11.25 23.6863 11.25 23.4377V17.8127ZM15.9375 17.8127C15.9375 17.564 15.8387 17.3256 15.6629 17.1498C15.4871 16.9739 15.2486 16.8752 15 16.8752C14.7514 16.8752 14.5129 16.9739 14.3371 17.1498C14.1613 17.3256 14.0625 17.564 14.0625 17.8127V23.4377C14.0625 23.6863 14.1613 23.9248 14.3371 24.1006C14.5129 24.2764 14.7514 24.3752 15 24.3752C15.2486 24.3752 15.4871 24.2764 15.6629 24.1006C15.8387 23.9248 15.9375 23.6863 15.9375 23.4377V17.8127ZM20.625 17.8127C20.625 17.564 20.5262 17.3256 20.3504 17.1498C20.1746 16.9739 19.9361 16.8752 19.6875 16.8752C19.4389 16.8752 19.2004 16.9739 19.0246 17.1498C18.8488 17.3256 18.75 17.564 18.75 17.8127V23.4377C18.75 23.6863 18.8488 23.9248 19.0246 24.1006C19.2004 24.2764 19.4389 24.3752 19.6875 24.3752C19.9361 24.3752 20.1746 24.2764 20.3504 24.1006C20.5262 23.9248 20.625 23.6863 20.625 23.4377V17.8127ZM25.3125 17.8127C25.3125 17.564 25.2137 17.3256 25.0379 17.1498C24.8621 16.9739 24.6236 16.8752 24.375 16.8752C24.1264 16.8752 23.8879 16.9739 23.7121 17.1498C23.5363 17.3256 23.4375 17.564 23.4375 17.8127V23.4377C23.4375 23.6863 23.5363 23.9248 23.7121 24.1006C23.8879 24.2764 24.1264 24.3752 24.375 24.3752C24.6236 24.3752 24.8621 24.2764 25.0379 24.1006C25.2137 23.9248 25.3125 23.6863 25.3125 23.4377V17.8127Z" fill="white"/>
</svg>
