<svg width="24" height="25" viewBox="0 0 24 25" fill="none" xmlns="http://www.w3.org/2000/svg">
<path fill-rule="evenodd" clip-rule="evenodd" d="M3.76785 8.45531C3.76785 6.21754 4.6568 4.07143 6.23914 2.48909C7.82147 0.906755 9.96759 0.017807 12.2053 0.017807C14.4431 0.017807 16.5892 0.906755 18.1716 2.48909C19.7539 4.07143 20.6428 6.21754 20.6428 8.45531V9.39281C20.6428 12.0466 21.6429 14.4641 23.2903 16.2928C23.393 16.4065 23.4662 16.5437 23.5035 16.6923C23.5409 16.8408 23.5413 16.9963 23.5046 17.145C23.468 17.2938 23.3955 17.4313 23.2934 17.5455C23.1913 17.6598 23.0628 17.7472 22.9191 17.8003C20.9891 18.5128 18.9691 19.0378 16.8804 19.3541C16.9274 19.9967 16.8414 20.6422 16.6278 21.2502C16.4141 21.8581 16.0774 22.4155 15.6387 22.8875C15.2 23.3595 14.6687 23.7359 14.078 23.9934C13.4872 24.2508 12.8497 24.3837 12.2053 24.3837C11.561 24.3837 10.9235 24.2508 10.3327 23.9934C9.742 23.7359 9.21068 23.3595 8.77197 22.8875C8.33325 22.4155 7.99657 21.8581 7.78294 21.2502C7.56931 20.6422 7.48332 19.9967 7.53035 19.3541C5.46992 19.0418 3.44659 18.5208 1.4916 17.7991C1.34802 17.746 1.2196 17.6587 1.11755 17.5446C1.01551 17.4305 0.942945 17.2932 0.906201 17.1446C0.869457 16.9961 0.869649 16.8407 0.90676 16.6923C0.943872 16.5438 1.01677 16.4066 1.1191 16.2928C2.82761 14.4012 3.7717 11.9418 3.76785 9.39281V8.45531ZM9.39535 19.5803C9.37936 19.9593 9.4402 20.3376 9.5742 20.6925C9.70821 21.0473 9.91262 21.3714 10.1751 21.6452C10.4376 21.9191 10.7528 22.1369 11.1017 22.2858C11.4506 22.4346 11.826 22.5114 12.2053 22.5114C12.5847 22.5114 12.9601 22.4346 13.309 22.2858C13.6579 22.1369 13.9731 21.9191 14.2356 21.6452C14.4981 21.3714 14.7025 21.0473 14.8365 20.6925C14.9705 20.3376 15.0313 19.9593 15.0154 19.5803C13.1458 19.7487 11.2649 19.7487 9.39535 19.5803Z" fill="white"/>
</svg>
