<svg width="30" height="30" viewBox="0 0 30 30" fill="none" xmlns="http://www.w3.org/2000/svg">
<path d="M1.875 5.625C1.875 5.12772 2.07254 4.65081 2.42417 4.29917C2.77581 3.94754 3.25272 3.75 3.75 3.75H26.25C26.7473 3.75 27.2242 3.94754 27.5758 4.29917C27.9275 4.65081 28.125 5.12772 28.125 5.625H1.875ZM15 20.625C15.9946 20.625 16.9484 20.2299 17.6516 19.5266C18.3549 18.8234 18.75 17.8696 18.75 16.875C18.75 15.8804 18.3549 14.9266 17.6516 14.2233C16.9484 13.5201 15.9946 13.125 15 13.125C14.0054 13.125 13.0516 13.5201 12.3483 14.2233C11.6451 14.9266 11.25 15.8804 11.25 16.875C11.25 17.8696 11.6451 18.8234 12.3483 19.5266C13.0516 20.2299 14.0054 20.625 15 20.625Z" fill="white"/>
<path d="M0 9.375C0 8.87772 0.197544 8.40081 0.549175 8.04918C0.900806 7.69754 1.37772 7.5 1.875 7.5H28.125C28.6223 7.5 29.0992 7.69754 29.4508 8.04918C29.8025 8.40081 30 8.87772 30 9.375V24.375C30 24.8723 29.8025 25.3492 29.4508 25.7008C29.0992 26.0525 28.6223 26.25 28.125 26.25H1.875C1.37772 26.25 0.900806 26.0525 0.549175 25.7008C0.197544 25.3492 0 24.8723 0 24.375V9.375ZM5.625 9.375C5.625 10.3696 5.22991 11.3234 4.52665 12.0267C3.82339 12.7299 2.86956 13.125 1.875 13.125V20.625C2.86956 20.625 3.82339 21.0201 4.52665 21.7234C5.22991 22.4266 5.625 23.3804 5.625 24.375H24.375C24.375 23.3804 24.7701 22.4266 25.4734 21.7234C26.1766 21.0201 27.1304 20.625 28.125 20.625V13.125C27.1304 13.125 26.1766 12.7299 25.4734 12.0267C24.7701 11.3234 24.375 10.3696 24.375 9.375H5.625Z" fill="white"/>
</svg>
