<svg width="25" height="25" viewBox="0 0 25 25" fill="none" xmlns="http://www.w3.org/2000/svg">
<path fill-rule="evenodd" clip-rule="evenodd" d="M12.4025 24.3931C13.5475 24.3948 14.5275 23.5675 14.7179 22.4377L14.8326 21.7517C14.8644 21.5794 14.941 21.4186 15.0546 21.2854C15.1682 21.1521 15.3149 21.0512 15.48 20.9926C15.6821 20.9173 15.8815 20.8351 16.0778 20.746C16.2362 20.671 16.4116 20.639 16.5862 20.6533C16.7609 20.6676 16.9287 20.7277 17.0727 20.8274L17.6384 21.2333C18.0894 21.5565 18.6405 21.7092 19.1936 21.6643C19.7467 21.6193 20.2659 21.3795 20.6587 20.9877L20.9629 20.6844C21.3559 20.2926 21.5972 19.7741 21.6438 19.2212C21.6904 18.6683 21.5393 18.1167 21.2174 17.6647L20.8132 17.0979C20.7138 16.9535 20.6543 16.7856 20.6405 16.6109C20.6267 16.4362 20.6592 16.2609 20.7346 16.1028C20.8243 15.9067 20.9072 15.7075 20.983 15.5056C21.0421 15.3408 21.1435 15.1944 21.277 15.0811C21.4106 14.9679 21.5717 14.8918 21.744 14.8605L22.4316 14.7465C22.9787 14.6559 23.476 14.3743 23.835 13.9516C24.1941 13.529 24.3916 12.9927 24.3925 12.4381L24.3931 12.0081C24.3948 10.8631 23.5675 9.88317 22.4378 9.69277L21.7517 9.57801C21.4005 9.51875 21.1171 9.26458 20.9926 8.93065C20.9179 8.72804 20.8345 8.52917 20.746 8.33279C20.671 8.17442 20.639 7.99908 20.6533 7.82443C20.6676 7.64978 20.7277 7.48197 20.8275 7.33791L21.2333 6.77225C21.5565 6.32122 21.7092 5.77012 21.6643 5.21704C21.6193 4.66397 21.3796 4.14478 20.9877 3.75189L20.6844 3.4477C19.8756 2.63651 18.5982 2.5284 17.6648 3.19328L17.0979 3.59745C16.9536 3.6968 16.7856 3.75637 16.6109 3.77016C16.4362 3.78394 16.261 3.75147 16.1028 3.676C15.9067 3.58696 15.7081 3.50417 15.5057 3.42763C15.1721 3.30214 14.9188 3.01802 14.8605 2.66668L14.7465 1.97901C14.5607 0.849992 13.5844 0.0198128 12.4381 0.0181371L12.0081 0.0175084C10.8631 0.0158345 9.88319 0.843151 9.69279 1.97288L9.57803 2.65896C9.54625 2.83117 9.4697 2.99198 9.35606 3.12523C9.24242 3.25847 9.09571 3.35945 8.93067 3.41801C8.72862 3.49334 8.52921 3.5756 8.33281 3.66464C8.17444 3.73965 7.9991 3.77161 7.82445 3.75731C7.6498 3.74301 7.48199 3.68295 7.33793 3.58318L6.77227 3.17736C6.32124 2.85412 5.77014 2.7014 5.21706 2.74637C4.66399 2.79134 4.1448 3.03108 3.75191 3.42294L3.44772 3.72625C2.63653 4.53506 2.52842 5.81241 3.1933 6.74588L3.59747 7.31272C3.69682 7.45707 3.75639 7.62505 3.77018 7.79975C3.78397 7.97444 3.75149 8.14968 3.67602 8.30784C3.58698 8.50396 3.50419 8.70259 3.42765 8.90497C3.30216 9.23854 3.01804 9.49188 2.6667 9.55011L1.97904 9.66286C1.43171 9.75348 0.934283 10.0353 0.575229 10.4582C0.216176 10.8811 0.0187801 11.4177 0.0181579 11.9725L0.0175293 12.4025C0.0158553 13.5475 0.843172 14.5275 1.9729 14.7179L2.65898 14.8326C2.83119 14.8644 2.99201 14.9409 3.12525 15.0546C3.25849 15.1682 3.35947 15.3149 3.41803 15.48C3.49335 15.682 3.57561 15.8814 3.66466 16.0778C3.73967 16.2362 3.77163 16.4115 3.75733 16.5862C3.74303 16.7608 3.68297 16.9286 3.58321 17.0727L3.17738 17.6384C2.85414 18.0894 2.70142 18.6405 2.74639 19.1936C2.79136 19.7467 3.0311 20.2658 3.42296 20.6587L3.72627 20.9629C4.11801 21.3559 4.63649 21.5972 5.18944 21.6438C5.74238 21.6904 6.29392 21.5393 6.7459 21.2173L7.31274 20.8132C7.45709 20.7138 7.62507 20.6543 7.79977 20.6405C7.97446 20.6267 8.1497 20.6592 8.30786 20.7346C8.50397 20.8243 8.70314 20.9071 8.90499 20.983C9.06986 21.042 9.21628 21.1434 9.32952 21.277C9.44277 21.4106 9.51886 21.5716 9.55013 21.7439L9.66288 22.4316C9.7535 22.9789 10.0353 23.4764 10.4583 23.8354C10.8812 24.1945 11.4177 24.3919 11.9725 24.3925L12.4025 24.3931ZM12.2122 7.51781C10.969 7.516 9.77598 8.00811 8.89562 8.8859C8.01526 9.7637 7.51965 10.9553 7.51784 12.1985C7.51602 13.4417 8.00813 14.6347 8.88593 15.515C9.76372 16.3954 10.9553 16.891 12.1985 16.8928C13.4417 16.8946 14.6347 16.4025 15.515 15.5247C16.3954 14.6469 16.891 13.4554 16.8928 12.2122C16.8946 10.969 16.4025 9.77596 15.5247 8.8956C14.6469 8.01523 13.4554 7.51963 12.2122 7.51781Z" fill="white"/>
</svg>
