<svg width="30" height="30" viewBox="0 0 30 30" fill="none" xmlns="http://www.w3.org/2000/svg">
<path d="M6.52876 2.8125C5.90751 2.8125 5.31126 3.06 4.87251 3.5L3.24751 5.1225C2.40779 5.96066 1.91715 7.08605 1.87452 8.27173C1.83189 9.4574 2.24046 10.6151 3.01782 11.5114C3.79518 12.4077 4.88349 12.9759 6.06328 13.1014C7.24306 13.2268 8.42653 12.9003 9.37501 12.1875C10.1588 12.775 11.1325 13.125 12.1875 13.125C13.2425 13.125 14.2175 12.775 15 12.1875C15.7825 12.775 16.7575 13.125 17.8125 13.125C18.8675 13.125 19.8413 12.775 20.625 12.1875C21.5735 12.9003 22.757 13.2268 23.9367 13.1014C25.1165 12.9759 26.2048 12.4077 26.9822 11.5114C27.7596 10.6151 28.1681 9.4574 28.1255 8.27173C28.0829 7.08605 27.5922 5.96066 26.7525 5.1225L25.1275 3.49875C24.6882 3.05954 24.0925 2.81272 23.4713 2.8125H6.52876Z" fill="white"/>
<path fill-rule="evenodd" clip-rule="evenodd" d="M3.75 25.3126V14.3688C5.525 15.2113 7.6 15.2101 9.375 14.3688C10.2539 14.7857 11.2147 15.0013 12.1875 15.0001C13.1925 15.0001 14.1475 14.7726 15 14.3676C15.8788 14.7849 16.8396 15.001 17.8125 15.0001C18.8175 15.0001 19.7712 14.7726 20.625 14.3676C22.4 15.2101 24.475 15.2113 26.25 14.3688V25.3126H27.1875C27.4361 25.3126 27.6746 25.4113 27.8504 25.5871C28.0262 25.763 28.125 26.0014 28.125 26.2501C28.125 26.4987 28.0262 26.7372 27.8504 26.913C27.6746 27.0888 27.4361 27.1876 27.1875 27.1876H2.8125C2.56386 27.1876 2.3254 27.0888 2.14959 26.913C1.97377 26.7372 1.875 26.4987 1.875 26.2501C1.875 26.0014 1.97377 25.763 2.14959 25.5871C2.3254 25.4113 2.56386 25.3126 2.8125 25.3126H3.75ZM7.5 17.8126C7.5 17.5639 7.59877 17.3255 7.77459 17.1496C7.9504 16.9738 8.18886 16.8751 8.4375 16.8751H12.1875C12.4361 16.8751 12.6746 16.9738 12.8504 17.1496C13.0262 17.3255 13.125 17.5639 13.125 17.8126V21.5626C13.125 21.8112 13.0262 22.0497 12.8504 22.2255C12.6746 22.4013 12.4361 22.5001 12.1875 22.5001H8.4375C8.18886 22.5001 7.9504 22.4013 7.77459 22.2255C7.59877 22.0497 7.5 21.8112 7.5 21.5626V17.8126ZM17.8125 16.8751C17.5639 16.8751 17.3254 16.9738 17.1496 17.1496C16.9738 17.3255 16.875 17.5639 16.875 17.8126V24.3751C16.875 24.8926 17.295 25.3126 17.8125 25.3126H21.5625C21.8111 25.3126 22.0496 25.2138 22.2254 25.038C22.4012 24.8622 22.5 24.6237 22.5 24.3751V17.8126C22.5 17.5639 22.4012 17.3255 22.2254 17.1496C22.0496 16.9738 21.8111 16.8751 21.5625 16.8751H17.8125Z" fill="white"/>
</svg>
