<svg width="25" height="25" viewBox="0 0 25 25" fill="none" xmlns="http://www.w3.org/2000/svg">
<path fill-rule="evenodd" clip-rule="evenodd" d="M12.2053 0.017807C12.454 0.017807 12.6924 0.116579 12.8682 0.292394C13.0441 0.46821 13.1428 0.706667 13.1428 0.955307V12.2053C13.1428 12.4539 13.0441 12.6924 12.8682 12.8682C12.6924 13.044 12.454 13.1428 12.2053 13.1428C11.9567 13.1428 11.7182 13.044 11.5424 12.8682C11.3666 12.6924 11.2678 12.4539 11.2678 12.2053V0.955307C11.2678 0.706667 11.3666 0.46821 11.5424 0.292394C11.7182 0.116579 11.9567 0.017807 12.2053 0.017807ZM4.91282 3.58781C5.08839 3.76359 5.187 4.00187 5.187 4.25031C5.187 4.49875 5.08839 4.73703 4.91282 4.91281C3.47072 6.35509 2.48868 8.1926 2.09088 10.193C1.69307 12.1934 1.89737 14.2668 2.67794 16.1511C3.45851 18.0354 4.78029 19.6459 6.47614 20.779C8.17199 21.9121 10.1658 22.5169 12.2053 22.5169C14.2449 22.5169 16.2387 21.9121 17.9345 20.779C19.6304 19.6459 20.9521 18.0354 21.7327 16.1511C22.5133 14.2668 22.7176 12.1934 22.3198 10.193C21.922 8.1926 20.9399 6.35509 19.4978 4.91281C19.4057 4.82698 19.3318 4.72348 19.2806 4.60848C19.2294 4.49348 19.2018 4.36934 19.1996 4.24346C19.1974 4.11758 19.2205 3.99255 19.2677 3.87581C19.3148 3.75907 19.385 3.65303 19.474 3.56401C19.563 3.47499 19.6691 3.4048 19.7858 3.35765C19.9026 3.3105 20.0276 3.28735 20.1535 3.28957C20.2794 3.29179 20.4035 3.31934 20.5185 3.37058C20.6335 3.42182 20.737 3.4957 20.8228 3.58781C25.5828 8.34656 25.5828 16.0628 20.8228 20.8228C16.0641 25.5828 8.34782 25.5828 3.58782 20.8228C-1.17218 16.0641 -1.17218 8.34781 3.58782 3.58781C3.7636 3.41224 4.00188 3.31363 4.25032 3.31363C4.49876 3.31363 4.73704 3.41224 4.91282 3.58781Z" fill="white"/>
</svg>
