<svg width="30" height="30" viewBox="0 0 30 30" fill="none" xmlns="http://www.w3.org/2000/svg">
<path d="M8.4375 3.74255V6.55505M21.5625 3.74255V6.55505M3.7475 23.4301V9.3638C3.7475 8.61788 4.04381 7.90251 4.57126 7.37507C5.09871 6.84762 5.81408 6.5513 6.56 6.5513H23.435C24.1809 6.5513 24.8963 6.84762 25.4237 7.37507C25.9512 7.90251 26.2475 8.61788 26.2475 9.3638V23.4276M26.2475 23.4276C26.2475 24.1735 25.9512 24.8888 25.4237 25.4163C24.8963 25.9437 24.1809 26.2401 23.435 26.2401H6.56C5.81408 26.2401 5.09871 25.9437 4.57126 25.4163C4.04381 24.8888 3.7475 24.1735 3.7475 23.4276V14.0526C3.7475 13.3066 4.04381 12.5913 4.57126 12.0638C5.09871 11.5364 5.81408 11.2401 6.56 11.2401H23.435C24.1809 11.2401 24.8963 11.5364 25.4237 12.0638C25.9512 12.5913 26.2475 13.3066 26.2475 14.0526V23.4276ZM17.81 15.9276H20.6225M9.3725 18.7401H14.9975M15 15.9276H15.0062V15.9351H15V15.9276ZM14.9987 21.5526H15.0062V21.5601H14.9987V21.5526ZM12.1862 21.5538H12.1925V21.5613H12.1875V21.5538H12.1862ZM9.37375 21.5538H9.38V21.5601H9.3725V21.5538H9.37375ZM17.8112 18.7451H17.8175V18.7513H17.8112V18.7451ZM17.8112 21.5538H17.8187V21.5613H17.8112V21.5538ZM20.6237 18.7438H20.6312V18.7501H20.625L20.6237 18.7438Z" stroke="white" stroke-width="1.5" stroke-linecap="round" stroke-linejoin="round"/>
</svg>
