<svg width="31" height="30" viewBox="0 0 31 30" fill="none" xmlns="http://www.w3.org/2000/svg">
<path d="M4.39874 6.34615C4.39874 4.66305 5.03597 3.04888 6.17024 1.85874C7.30451 0.66861 8.84291 0 10.447 0C12.0511 0 13.5895 0.66861 14.7238 1.85874C15.8581 3.04888 16.4953 4.66305 16.4953 6.34615C16.4953 8.02925 15.8581 9.64342 14.7238 10.8336C13.5895 12.0237 12.0511 12.6923 10.447 12.6923C8.84291 12.6923 7.30451 12.0237 6.17024 10.8336C5.03597 9.64342 4.39874 8.02925 4.39874 6.34615ZM18.6947 9.80768C18.6947 9.12582 18.8227 8.45063 19.0714 7.82068C19.32 7.19072 19.6845 6.61832 20.1441 6.13617C20.6036 5.65402 21.1491 5.27156 21.7495 5.01062C22.3499 4.74968 22.9934 4.61538 23.6432 4.61538C24.2931 4.61538 24.9366 4.74968 25.537 5.01062C26.1374 5.27156 26.6829 5.65402 27.1424 6.13617C27.6019 6.61832 27.9665 7.19072 28.2151 7.82068C28.4638 8.45063 28.5918 9.12582 28.5918 9.80768C28.5918 11.1848 28.0705 12.5055 27.1424 13.4792C26.2144 14.4529 24.9557 15 23.6432 15C22.3308 15 21.0721 14.4529 20.1441 13.4792C19.216 12.5055 18.6947 11.1848 18.6947 9.80768ZM0 25.9615C4.1287e-08 23.0543 1.10066 20.2662 3.05986 18.2105C5.01906 16.1549 7.6763 15 10.447 15C13.2177 15 15.875 16.1549 17.8342 18.2105C19.7934 20.2662 20.894 23.0543 20.894 25.9615V25.9661L20.8926 26.1492C20.8895 26.3449 20.839 26.5365 20.7459 26.706C20.6528 26.8756 20.5201 27.0175 20.3603 27.1184C17.368 29.0092 13.94 30.0056 10.447 30C6.82245 30 3.42955 28.9477 0.535181 27.1184C0.375141 27.0177 0.242176 26.8758 0.148804 26.7063C0.0554333 26.5367 0.00472915 26.345 0.00146632 26.1492L0 25.9615ZM23.0934 25.9661L23.0919 26.1877C23.0837 26.7005 22.9671 27.2049 22.7503 27.6646C25.3099 27.8302 27.8666 27.2948 30.1695 26.1108C30.3476 26.0194 30.4989 25.8793 30.6073 25.7051C30.7157 25.531 30.7772 25.3293 30.7853 25.1215C30.8371 23.8311 30.5704 22.5486 30.011 21.3981C29.4517 20.2476 28.6187 19.2681 27.5927 18.5546C26.5666 17.8411 25.3824 17.4177 24.1546 17.3253C22.9268 17.233 21.6972 17.4749 20.5847 18.0277C22.2169 20.3178 23.0967 23.1019 23.0919 25.9615L23.0934 25.9661Z" fill="white"/>
</svg>
